<svg id="Capa_1" enable-background="new 0 0 512 512" height="512" viewBox="0 0 512 512" width="512" xmlns="http://www.w3.org/2000/svg"><g><path d="m15.625 267.527h101.096c4.487 0 8.125-3.638 8.125-8.125v-193.951h-109.221c-4.487 0-8.125 3.638-8.125 8.125v185.825c0 4.488 3.638 8.126 8.125 8.126z" fill="#da387d"/><path d="m84.847 65.451v135.606c0 25.664-20.805 46.469-46.469 46.469h-30.878v11.875c0 4.488 3.638 8.125 8.125 8.125h101.096c4.487 0 8.125-3.638 8.125-8.125v-193.95z" fill="#d80a61"/><circle cx="66.173" cy="212.681" fill="#f9c6da" r="20.859"/><path d="m72.55 232.547c8.401-2.694 14.482-10.57 14.482-19.866 0-3.385-.807-6.582-2.238-9.409-.529 11.276-5.077 21.501-12.244 29.275z" fill="#efa5c3"/><path d="m474.905 169.724h-10.928c16.345 0 29.595-13.25 29.595-29.595v-10.928c0-16.345-13.25-29.595-29.595-29.595h-27.813c13.03 0 23.592-10.562 23.592-23.592v-19.955c0-13.029-10.562-23.592-23.592-23.592h-140.448c-23.609 0-45.4 7.739-63.003 20.807-10.845 8.051-24.106 12.177-37.612 12.177h-70.254v174.39h30.093c21.76 0 40.808 14.615 46.44 35.635l52.827 197.153c1.091 4.073 4.782 6.905 8.998 6.905 24.111 0 43.657-19.546 43.657-43.657v-98.478c0-15.154 12.284-27.438 27.438-27.438h129.677c16.345 0 29.595-13.25 29.595-29.595v-10.928c0-16.345-13.25-29.595-29.595-29.595h10.928c16.345 0 29.595-13.25 29.595-29.595v-10.928c0-16.346-13.25-29.596-29.595-29.596z" fill="#ffcbbe"/><path d="m474.905 169.724h-10.928c16.345 0 29.595-13.25 29.595-29.595v-10.928c0-16.345-13.25-29.595-29.595-29.595h-27.813c13.03 0 23.592-10.562 23.592-23.592v-19.955c0-13.029-10.562-23.592-23.592-23.592h-16.68c.179 1.171.272 2.371.272 3.592v197.49c0 31.155-25.256 56.411-56.411 56.411h-37.376c-32.644 0-59.107 26.463-59.107 59.107v66.809c0 14.67-7.236 27.649-18.333 35.565l5.677 21.188c1.091 4.073 4.782 6.905 8.998 6.905 24.111 0 43.657-19.546 43.657-43.657v-98.478c0-15.154 12.284-27.438 27.438-27.438h129.677c16.345 0 29.595-13.25 29.595-29.595v-10.928c0-16.345-13.25-29.595-29.595-29.595h10.928c16.345 0 29.595-13.25 29.595-29.595v-10.928c.001-16.346-13.249-29.596-29.594-29.596z" fill="#eaac9d"/><path d="m37.814 212.681c0 15.637 12.722 28.359 28.359 28.359s28.358-12.722 28.358-28.359-12.722-28.359-28.358-28.359c-15.637 0-28.359 12.722-28.359 28.359zm28.36-13.359c7.366 0 13.358 5.993 13.358 13.359s-5.992 13.359-13.358 13.359-13.359-5.993-13.359-13.359 5.993-13.359 13.359-13.359z"/><path d="m512 210.247v-10.928c0-14.79-8.699-27.586-21.251-33.539 6.391-6.667 10.323-15.709 10.323-25.652v-10.928c0-20.455-16.641-37.095-37.096-37.095h-1.218c2.854-4.697 4.497-10.206 4.497-16.092v-19.954c0-17.144-13.947-31.092-31.092-31.092h-140.446c-24.503 0-47.835 7.706-67.475 22.285-9.294 6.899-21.063 10.699-33.142 10.699h-115.309c-4.143 0-7.5 3.358-7.5 7.5s3.357 7.5 7.5 7.5h37.556v186.45c0 .345-.28.625-.625.625h-101.097c-.345 0-.625-.281-.625-.625v-185.824c0-.345.28-.625.625-.625h29.166c4.143 0 7.5-3.358 7.5-7.5s-3.357-7.5-7.5-7.5h-29.166c-8.615-.001-15.625 7.009-15.625 15.625v185.825c0 8.616 7.01 15.625 15.625 15.625h101.097c8.615 0 15.625-7.01 15.625-15.625v-12.06h22.593c18.333 0 34.451 12.368 39.196 30.076l52.826 197.151c1.966 7.339 8.646 12.464 16.243 12.464 28.208 0 51.157-22.949 51.157-51.158v-42.428c0-4.142-3.357-7.5-7.5-7.5s-7.5 3.358-7.5 7.5v42.428c0 19.938-16.22 36.158-36.157 36.158-.82 0-1.541-.553-1.754-1.346l-52.827-197.152c-6.498-24.254-28.574-41.194-53.685-41.194h-22.593v-159.39h62.754c15.275 0 30.221-4.85 42.083-13.655 17.034-12.645 37.274-19.329 58.533-19.329h140.447c8.873 0 16.092 7.219 16.092 16.092v19.955c0 8.873-7.219 16.092-16.092 16.092-32.529 0-29.514 0-32.682 0-4.143 0-7.5 3.358-7.5 7.5s3.357 7.5 7.5 7.5h60.494c12.184 0 22.096 9.912 22.096 22.095v10.928c0 12.183-9.912 22.095-22.096 22.095h-60.494c-4.143 0-7.5 3.358-7.5 7.5s3.357 7.5 7.5 7.5h71.423c12.183 0 22.095 9.912 22.095 22.095v10.928c0 12.183-9.912 22.095-22.095 22.095h-71.423c-4.143 0-7.5 3.358-7.5 7.5s3.357 7.5 7.5 7.5h60.494c12.184 0 22.096 9.912 22.096 22.095v10.928c0 12.184-9.912 22.095-22.096 22.095h-129.674c-19.266 0-34.938 15.673-34.938 34.938v21.049c0 4.142 3.357 7.5 7.5 7.5s7.5-3.358 7.5-7.5v-21.049c0-10.994 8.944-19.938 19.938-19.938h129.676c20.455 0 37.096-16.641 37.096-37.095v-10.928c0-9.942-3.933-18.984-10.323-25.652 12.551-5.953 21.25-18.748 21.25-33.538z"/></g></svg>